{
    "asset" : {
        "generator" : "Khronos glTF Blender I/O v1.3.48",
        "version" : "2.0"
    },
    "scene" : 0,
    "scenes" : [
        {
            "name" : "Scene",
            "nodes" : [
                0,
                1,
                2,
                3
            ]
        }
    ],
    "nodes" : [
        {
            "name" : "Light",
            "rotation" : [
                0.16907575726509094,
                0.7558803558349609,
                -0.27217137813568115,
                0.570947527885437
            ],
            "translation" : [
                4.076245307922363,
                5.903861999511719,
                -1.0054539442062378
            ]
        },
        {
            "name" : "Camera",
            "rotation" : [
                0.483536034822464,
                0.33687159419059753,
                -0.20870360732078552,
                0.7804827094078064
            ],
            "translation" : [
                7.358891487121582,
                4.958309173583984,
                6.925790786743164
            ]
        },
        {
            "mesh" : 0,
            "name" : "FIFA World Cup Trophy 2",
            "rotation" : [
                0.7071068286895752,
                0,
                0,
                0.7071067094802856
            ],
            "scale" : [
                0.013564522378146648,
                0.0135645205155015,
                0.0135645205155015
            ],
            "translation" : [
                0,
                0,
                0.10286311060190201
            ]
        },
        {
            "name" : "Sun",
            "translation" : [
                0.0026375160086899996,
                1.0523686408996582,
                0
            ]
        }
    ],
    "materials" : [
        {
            "doubleSided" : true,
            "emissiveFactor" : [
                0.2140350043773651,
                0.2140350043773651,
                0.2140350043773651
            ],
            "name" : "material_0",
            "pbrMetallicRoughness" : {
                "baseColorTexture" : {
                    "index" : 0,
                    "texCoord" : 0
                },
                "metallicFactor" : 0,
                "roughnessFactor" : 0.5
            }
        }
    ],
    "meshes" : [
        {
            "name" : "FIFA World Cup Trophy 2",
            "primitives" : [
                {
                    "attributes" : {
                        "POSITION" : 0,
                        "NORMAL" : 1,
                        "TEXCOORD_0" : 2
                    },
                    "indices" : 3,
                    "material" : 0
                }
            ]
        }
    ],
    "textures" : [
        {
            "source" : 0
        }
    ],
    "images" : [
        {
            "bufferView" : 4,
            "mimeType" : "image/jpeg",
            "name" : "texture0"
        }
    ],
    "accessors" : [
        {
            "bufferView" : 0,
            "componentType" : 5126,
            "count" : 4894,
            "max" : [
                8.870865821838379,
                0.46456700563430786,
                0
            ],
            "min" : [
                -8.870864868164062,
                -15.346017837524414,
                -42.30017852783203
            ],
            "type" : "VEC3"
        },
        {
            "bufferView" : 1,
            "componentType" : 5126,
            "count" : 4894,
            "type" : "VEC3"
        },
        {
            "bufferView" : 2,
            "componentType" : 5126,
            "count" : 4894,
            "type" : "VEC2"
        },
        {
            "bufferView" : 3,
            "componentType" : 5123,
            "count" : 4896,
            "type" : "SCALAR"
        }
    ],
    "bufferViews" : [
        {
            "buffer" : 0,
            "byteLength" : 58728,
            "byteOffset" : 0
        },
        {
            "buffer" : 0,
            "byteLength" : 58728,
            "byteOffset" : 58728
        },
        {
            "buffer" : 0,
            "byteLength" : 39152,
            "byteOffset" : 117456
        },
        {
            "buffer" : 0,
            "byteLength" : 9792,
            "byteOffset" : 156608
        },
        {
            "buffer" : 0,
            "byteLength" : 86304,
            "byteOffset" : 166400
        }
    ],
    "buffers" : [
        {
            "byteLength" : 252704,
            "uri" : "data:application/octet-stream;base64,"
        }
    ]
}
